# Blender 3.5.0
# www.blender.org
mtllib ShamWall.mtl
o 平面
v -2.052996 -5.000000 0.863611
v -2.052996 -5.000000 -0.853578
v 2.077520 -5.000000 -0.853064
v 0.871628 -5.000000 -2.052996
v -0.861621 -5.000000 -2.052996
v 2.077520 -5.000000 0.863099
v 0.870991 -5.000000 2.081191
v -0.860983 -5.000000 2.081191
v 2.077520 5.000000 0.863099
v 2.077520 5.000000 -0.853064
v -2.052996 5.000000 -0.853578
v -2.052996 5.000000 0.863611
v 0.871628 5.000000 -2.052995
v -0.861621 5.000000 -2.052995
v -0.860983 5.000000 2.081192
v 0.870991 5.000000 2.081192
v 2.227520 -4.850000 0.774813
v 0.783543 -4.850000 2.231190
v 2.227520 -4.850000 -0.765414
v 0.783543 -4.850000 -2.202996
v -2.202996 -4.850000 -0.765414
v -2.202996 -4.850000 0.774813
v -0.774049 -4.850000 -2.202996
v -0.774049 -4.850000 2.231190
v 2.227520 4.850000 0.774813
v 2.227520 4.850000 -0.765414
v -2.202996 4.850000 -0.765414
v -2.202996 4.850000 0.774813
v 0.783543 4.850000 -2.202996
v -0.774049 4.850000 -2.202996
v -0.774049 4.850000 2.231191
v 0.783543 4.850000 2.231191
v 2.121961 -4.850000 1.031383
v 2.121961 4.850000 1.031383
v -2.097287 -4.850000 -1.021837
v -2.098061 -4.850000 1.031998
v 2.121192 -4.850000 -1.021217
v -2.097287 4.850000 -1.021837
v 2.121192 4.850000 -1.021217
v -2.098061 4.850000 1.031998
v 1.039871 -4.850000 -2.097193
v 1.039871 4.850000 -2.097193
v -1.029757 -4.850000 -2.096575
v -1.028984 -4.850000 2.124006
v 1.039102 -4.850000 2.124619
v -1.029757 4.850000 -2.096574
v -1.028984 4.850000 2.124007
v 1.039102 4.850000 2.124620
v 2.227520 -5.000000 0.924813
v 2.227520 5.000000 0.924813
v 0.933543 -5.000000 2.231190
v -2.202996 -5.000000 -0.915414
v -0.924049 -5.000000 -2.202996
v -2.202996 5.000000 -0.915414
v 0.933543 5.000000 2.231191
v -0.924049 5.000000 -2.202996
v 0.933543 -5.000000 -2.202996
v 0.933543 5.000000 -2.202996
v 2.227520 -5.000000 -0.915414
v -2.202996 -5.000000 0.924813
v -0.924049 -5.000000 2.231190
v 2.227520 5.000000 -0.915414
v -2.202996 5.000000 0.924813
v -0.924049 5.000000 2.231191
vn 1.0000 -0.0000 -0.0000
vn -0.7095 -0.0000 -0.7047
vn -0.0000 -0.0000 1.0000
vn 0.7105 -0.0000 0.7037
vn -0.0000 -0.0000 -1.0000
vn -0.0000 1.0000 -0.0000
vn -0.0000 -1.0000 -0.0000
vn -0.7146 -0.0000 0.6996
vn 0.7054 -0.0000 -0.7089
vn -1.0000 -0.0000 -0.0000
vn 0.7053 -0.0000 -0.7089
vt 0.000000 0.000000
vt 0.190557 0.665864
vt 0.000000 0.000000
vt 0.190557 0.343124
vt 0.000000 0.000000
vt 0.966874 0.343221
vt 0.000000 0.000000
vt 0.740230 0.117697
vt 0.000000 0.000000
vt 0.414472 0.117697
vt 0.000000 0.000000
vt 0.966874 0.665768
vt 0.000000 0.000000
vt 0.740110 0.894704
vt 0.000000 0.000000
vt 0.414591 0.894704
vt 0.000000 0.000000
vt 0.195207 0.675069
vt 0.000000 0.000000
vt 0.195207 0.352522
vt 0.000000 0.000000
vt 0.971524 0.352425
vt 0.000000 0.000000
vt 0.971524 0.675165
vt 0.000000 0.000000
vt 0.421851 0.126999
vt 0.000000 0.000000
vt 0.747609 0.126999
vt 0.000000 0.000000
vt 0.747489 0.904005
vt 0.000000 0.000000
vt 0.421970 0.904005
vt 0.000000 0.000000
vt 0.053323 0.053323
vt 0.000000 0.000000
vt 0.196887 0.053489
vt 0.000000 0.000000
vt 0.195175 0.053323
vt 0.000000 0.000000
vt 0.053489 0.053489
vt 0.000000 0.000000
vt 0.053323 0.053323
vt 0.000000 0.000000
vt 0.195175 0.053323
vt 0.000000 0.000000
vt 0.196887 0.053489
vt 0.000000 0.000000
vt 0.053489 0.053489
vt 0.000000 0.000000
vt 0.053323 0.946677
vt 0.000000 0.000000
vt 0.195175 0.946677
vt 0.000000 0.000000
vt 0.053323 0.946677
vt 0.000000 0.000000
vt 0.195175 0.946677
vt 0.000000 0.000000
vt 0.053489 0.946511
vt 0.000000 0.000000
vt 0.196887 0.946511
vt 0.000000 0.000000
vt 0.053489 0.946511
vt 0.000000 0.000000
vt 0.196887 0.946511
vt 0.000000 0.000000
vt 0.195030 0.053309
vt 0.000000 0.000000
vt 0.195030 0.946691
vt 0.000000 0.000000
vt 0.192667 0.053078
vt 0.000000 0.000000
vt 0.053208 0.053207
vt 0.000000 0.000000
vt 0.053181 0.053181
vt 0.000000 0.000000
vt 0.192667 0.946922
vt 0.000000 0.000000
vt 0.053181 0.946819
vt 0.000000 0.000000
vt 0.053207 0.946793
vt 0.000000 0.000000
vt 0.193716 0.053181
vt 0.000000 0.000000
vt 0.193716 0.946819
vt 0.000000 0.000000
vt 0.053078 0.053078
vt 0.000000 0.000000
vt 0.193989 0.053207
vt 0.000000 0.000000
vt 0.053309 0.053309
vt 0.000000 0.000000
vt 0.053078 0.946922
vt 0.000000 0.000000
vt 0.193989 0.946793
vt 0.000000 0.000000
vt 0.053309 0.946691
vt 0.995066 0.677367
vt 0.039508 0.039508
vt 0.208845 0.039494
vt 0.167015 0.686668
vt 0.039508 0.960492
vt 0.208845 0.960506
vt 0.751867 0.922896
vt 0.210697 0.039679
vt 0.039494 0.039494
vt 0.162365 0.331502
vt 0.039508 0.039508
vt 0.206490 0.039256
vt 0.402738 0.089505
vt 0.210697 0.039679
vt 0.039256 0.039256
vt 0.999716 0.340803
vt 0.039508 0.960492
vt 0.206489 0.960744
vt 0.410214 0.932197
vt 0.210697 0.960321
vt 0.039494 0.960506
vt 0.759342 0.098807
vt 0.210697 0.960321
vt 0.039256 0.960744
vt 0.751867 0.089505
vt 0.039680 0.039679
vt 0.207536 0.039362
vt 0.410214 0.098807
vt 0.039679 0.960321
vt 0.207536 0.960638
vt 0.995066 0.331502
vt 0.208990 0.039508
vt 0.039362 0.039362
vt 0.162365 0.677367
vt 0.208990 0.039508
vt 0.039389 0.039389
vt 0.402738 0.922896
vt 0.039680 0.039679
vt 0.207807 0.039389
vt 0.167015 0.340803
vt 0.208990 0.960492
vt 0.039362 0.960638
vt 0.999716 0.686668
vt 0.208990 0.960492
vt 0.039389 0.960611
vt 0.759342 0.932197
vt 0.039679 0.960321
vt 0.207807 0.960611
s 0
usemtl マテリアル
f 17/33/1 26/51/1 25/49/1
f 35/69/2 46/91/2 43/85/2
f 32/63/3 24/47/3 18/35/3
f 48/95/4 33/65/4 34/67/4
f 20/39/5 30/59/5 29/57/5
f 12/23/6 15/29/6 16/31/6
f 1/1/7 4/7/7 6/11/7
f 47/93/8 36/71/8 44/87/8
f 39/77/9 41/81/9 42/83/9
f 28/55/10 21/41/10 22/43/10
f 7/14/7 49/97/7 51/103/7
f 3/6/7 57/121/7 59/127/7
f 2/4/7 60/130/7 52/106/7
f 5/10/7 57/121/7 4/8/7
f 3/6/7 49/97/7 6/12/7
f 5/10/7 52/106/7 53/109/7
f 8/16/7 60/130/7 1/2/7
f 8/16/7 51/103/7 61/133/7
f 10/20/6 50/100/6 62/136/6
f 11/22/6 63/139/6 12/24/6
f 14/28/6 58/124/6 56/118/6
f 15/30/6 55/115/6 16/32/6
f 10/20/6 58/124/6 13/26/6
f 16/32/6 50/100/6 9/18/6
f 15/30/6 63/139/6 64/142/6
f 14/28/6 54/112/6 11/22/6
f 25/50/1 49/98/1 17/34/1
f 21/42/10 60/131/10 22/44/10
f 17/34/1 59/128/1 19/38/1
f 27/54/10 52/107/10 21/42/10
f 19/38/1 62/137/1 26/52/1
f 26/52/1 50/101/1 25/50/1
f 28/56/10 54/113/10 27/54/10
f 22/44/10 63/140/10 28/56/10
f 29/58/5 57/122/5 20/40/5
f 20/40/5 53/110/5 23/46/5
f 24/48/3 51/104/3 18/36/3
f 30/60/5 58/125/5 29/58/5
f 32/64/3 64/143/3 31/62/3
f 18/36/3 55/116/3 32/64/3
f 31/62/3 61/134/3 24/48/3
f 23/46/5 56/119/5 30/60/5
f 33/66/4 50/102/4 34/68/4
f 45/90/4 49/99/4 33/66/4
f 35/70/2 53/111/2 52/108/2
f 35/70/2 54/114/2 38/76/2
f 48/96/4 51/105/4 45/90/4
f 34/68/4 55/117/4 48/96/4
f 38/76/2 56/120/2 46/92/2
f 46/92/2 53/111/2 43/86/2
f 41/82/9 58/126/9 42/84/9
f 37/74/11 57/123/11 41/82/11
f 44/88/8 60/132/8 61/135/8
f 39/78/9 59/129/9 37/74/9
f 42/84/9 62/138/9 39/78/9
f 40/80/8 60/132/8 36/72/8
f 47/94/8 63/141/8 40/80/8
f 44/88/8 64/144/8 47/94/8
f 17/33/1 19/37/1 26/51/1
f 35/69/2 38/75/2 46/91/2
f 32/63/3 31/61/3 24/47/3
f 48/95/4 45/89/4 33/65/4
f 20/39/5 23/45/5 30/59/5
f 16/31/6 9/17/6 12/23/6
f 9/17/6 10/19/6 13/25/6
f 12/23/6 9/17/6 13/25/6
f 13/25/6 14/27/6 11/21/6
f 12/23/6 13/25/6 11/21/6
f 3/5/7 6/11/7 4/7/7
f 6/11/7 7/13/7 1/1/7
f 7/13/7 8/15/7 1/1/7
f 1/1/7 2/3/7 4/7/7
f 2/3/7 5/9/7 4/7/7
f 47/93/8 40/79/8 36/71/8
f 39/77/9 37/73/9 41/81/9
f 28/55/10 27/53/10 21/41/10
f 7/14/7 6/12/7 49/97/7
f 3/6/7 4/8/7 57/121/7
f 2/4/7 1/2/7 60/130/7
f 5/10/7 53/109/7 57/121/7
f 3/6/7 59/127/7 49/97/7
f 5/10/7 2/4/7 52/106/7
f 8/16/7 61/133/7 60/130/7
f 8/16/7 7/14/7 51/103/7
f 10/20/6 9/18/6 50/100/6
f 11/22/6 54/112/6 63/139/6
f 14/28/6 13/26/6 58/124/6
f 15/30/6 64/142/6 55/115/6
f 10/20/6 62/136/6 58/124/6
f 16/32/6 55/115/6 50/100/6
f 15/30/6 12/24/6 63/139/6
f 14/28/6 56/118/6 54/112/6
f 25/50/1 50/101/1 49/98/1
f 21/42/10 52/107/10 60/131/10
f 17/34/1 49/98/1 59/128/1
f 27/54/10 54/113/10 52/107/10
f 19/38/1 59/128/1 62/137/1
f 26/52/1 62/137/1 50/101/1
f 28/56/10 63/140/10 54/113/10
f 22/44/10 60/131/10 63/140/10
f 29/58/5 58/125/5 57/122/5
f 20/40/5 57/122/5 53/110/5
f 24/48/3 61/134/3 51/104/3
f 30/60/5 56/119/5 58/125/5
f 32/64/3 55/116/3 64/143/3
f 18/36/3 51/104/3 55/116/3
f 31/62/3 64/143/3 61/134/3
f 23/46/5 53/110/5 56/119/5
f 33/66/4 49/99/4 50/102/4
f 45/90/4 51/105/4 49/99/4
f 35/70/2 43/86/2 53/111/2
f 35/70/2 52/108/2 54/114/2
f 48/96/4 55/117/4 51/105/4
f 34/68/4 50/102/4 55/117/4
f 38/76/2 54/114/2 56/120/2
f 46/92/2 56/120/2 53/111/2
f 41/82/9 57/123/9 58/126/9
f 37/74/9 59/129/9 57/123/9
f 44/88/8 36/72/8 60/132/8
f 39/78/9 62/138/9 59/129/9
f 42/84/9 58/126/9 62/138/9
f 40/80/8 63/141/8 60/132/8
f 47/94/8 64/144/8 63/141/8
f 44/88/8 61/135/8 64/144/8
